<svg width="112" height="50" fill="none" xmlns="http://www.w3.org/2000/svg"><path fill-rule="evenodd" clip-rule="evenodd" d="M3.41 14.062a24.812 24.812 0 00-1.553 4.1c-.13.508-.2 1.05-.037 1.638 1.05 3.764 6.612 6.476 12.149 7.878 8.327 2.11 17.905 1.96 19.208 1.842 15.075-1.371 16.608-8.928 16.608-10.165l.001-.1a5.917 5.917 0 00-.253-1.895 24.801 24.801 0 00-2.494-5.457c.756 1.32.736 1.914.727 2.198l-.002.074c0 5.034-9.359 8.32-15.621 10.031C16.078 28.6 2.969 22.614 2.969 16.544c0-1.067.153-1.816.44-2.482zm-2.153 14.87C3.914 43.424 22.15 42.596 25.293 42.248c22.941-2.547 24.916-12.354 25.217-14.29a24.825 24.825 0 01-2.024 7.229c-2.537 5.231-15.7 15.76-37.09 6.912-4.118-1.702-6.965-4.536-8.11-6.603a24.728 24.728 0 01-2.03-6.566zm6.097 12.675c5.364 5.044 13.61 5.655 17.396 5.655 16.035 0 21.761-8.436 23.056-10.692-4.178 7.879-12.46 13.246-21.99 13.246-7.325 0-13.91-3.169-18.462-8.209zm21.486-2.812c-4.852.174-13.394-1.5-18.774-3.7-4.331-1.77-8.616-5.216-9.076-8.502a25.103 25.103 0 01.028-3.748c.096 3.965 3.534 8.585 9.836 10.574 7.194 2.269 11.612 2.341 22.076.009 17.312-3.864 17.3-11.422 17.298-12.384v-.024c0-.401-.049-1.2-.236-2.02a24.983 24.983 0 01.636 7.742c-.405 2.58-4.282 11.428-21.788 12.054zM18.58 18.467l-.385-.05c-7.736-.985-13.403-3.995-13.403-6.314 0-.348.092-.647.246-.906a24.999 24.999 0 015.226-5.733c-2.178 1.808-2.172 3.715-2.17 4.01v.015c0 2.27 3.301 5.9 12.861 5.9 5.668 0 10.245-1.1 13.7-2.25 5.537-1.842 8.278-4.094 8.18-5.77a1.711 1.711 0 00-.425-1.02 25.183 25.183 0 013.243 3.524c.364.573.73 1.556.73 2.23 0 2.467-2.41 6.258-13.256 7.154-5.126.423-11.681-.42-14.547-.79zm7.241-8.142c-7.967.206-14.571-1.757-14.75-4.253-.058-.823.537-1.637 1.664-2.357A24.754 24.754 0 0125.816 0c4.595 0 8.9 1.248 12.596 3.423.946.552 1.48 1.192 1.48 1.906 0 2.5-6.101 4.792-14.07 4.996zm58.272 22.039l-.1.003c-2.525 0-3.804-1.34-3.804-3.981v-7.781c0-.135.109-.245.247-.245h3.957a.473.473 0 00.472-.471V18.16a.472.472 0 00-.472-.471h-3.945a.257.257 0 01-.26-.258v-3.574a.474.474 0 00-.451-.487h-.055l-2.024.159a.47.47 0 00-.461.47v3.444c0 .136-.11.246-.248.246l-2.483-.002c-.26 0-.474.21-.474.47l-.004 1.739a.476.476 0 00.487.463h2.476c.136 0 .248.108.248.244l-.002 8.302c0 4.457 3.35 6.046 6.29 6.046 0 0 .346.006.613-.02.266-.025.466-.21.466-.469v-1.631a.472.472 0 00-.473-.468zm17.207 1.288l-3.146-3.25a.264.264 0 01-.043-.355l2.398-4.046a.465.465 0 00-.405-.691h-1.757a.477.477 0 00-.418.24l-1.521 2.63c-.07.1-.22.126-.33.05l-2.458-2.528a.236.236 0 01.02-.326l.033-.026c1.387-.81 2.97-1.997 2.97-4.092 0-2.406-1.726-4.02-4.29-4.02-2.516 0-4.423 1.686-4.423 4.199 0 1.108.46 2.21 1.412 3.37l.021.027c.04.048.056.11.05.172a.247.247 0 01-.09.16c-2.093 1.19-3.147 2.767-3.147 4.696 0 3.27 2.733 4.982 5.436 4.982 1.854 0 3.301-.712 4.694-2.315a.389.389 0 00.027-.034c.084-.082.238-.082.332.012l1.69 1.752a.912.912 0 00.044.044c.09.088.207.138.33.138h2.235a.467.467 0 00.336-.789zm-8.906-13.986c1.055 0 1.623.729 1.623 1.617 0 1.042-.927 1.644-2.045 2.267l-.056.027a.228.228 0 01-.274-.045l-.025-.026c-.485-.533-1.06-1.378-1.06-1.99 0-1.04.744-1.85 1.837-1.85zM94.65 30.77l-.01.012c-.81.968-1.702 1.613-3 1.613-1.538 0-2.743-1.108-2.743-2.518 0-1.253.533-1.999 2.116-2.953.11-.065.234-.051.311.026l3.302 3.459c.06.058.086.116.089.181v.006c0 .06-.018.114-.065.174zM72.546 32.6c.013.22.057.717.218 1.169 0 0 .065.206.065.286a.46.46 0 01-.463.454l-1.962-.002a.511.511 0 01-.198-.05.546.546 0 01-.25-.324 3.049 3.049 0 01-.103-.617 7.352 7.352 0 01-.031-.795.062.062 0 00-.063-.062c-.02 0-.038.01-.05.024l-.012.014c-.98 1.19-2.95 2.16-5.397 2.16-2.525 0-5.233-1.657-5.233-4.909 0-5.534 6.976-6.471 9.725-6.37l.547.012c.132.003.244-.043.244-.226v-.03c.003-.465.019-3.11-3.44-3.11a6.716 6.716 0 00-3.529 1.023l-.143.095a.465.465 0 01-.646-.103l-1.057-1.432a.457.457 0 01-.067-.345.488.488 0 01.207-.3c1.336-.89 3.41-1.487 5.683-1.487 2.871 0 5.94 1.547 5.94 5.888v8.221s.007.656.015.817zm-7.21-.37c2.578-.424 3.973-2.061 4.374-4.9.091-.638.078-.864.004-.976-.077-.12-.2-.183-.402-.206-.226-.028-.561-.047-.561-.047-4.58-.197-7.059 1.599-6.96 3.735.086 1.945 1.73 2.69 3.546 2.393zm45.405.134l-.1.003c-2.527 0-3.806-1.34-3.806-3.981v-7.781c0-.135.112-.245.247-.245h3.957a.474.474 0 00.474-.471V18.16a.474.474 0 00-.474-.471h-3.944a.258.258 0 01-.26-.258v-3.574a.473.473 0 00-.452-.487h-.053l-2.025.159a.47.47 0 00-.462.47v3.444a.247.247 0 01-.247.246l-2.485-.002a.47.47 0 00-.471.47l-.004 1.739a.473.473 0 00.485.463h2.476c.136 0 .247.108.247.244v8.302c0 4.457 3.35 6.046 6.29 6.046 0 0 .347.006.615-.02.265-.025.463-.21.463-.469l.001-1.631a.47.47 0 00-.472-.468z" fill="#C2C2C2"/></svg>