<svg width="194" height="70" fill="none" xmlns="http://www.w3.org/2000/svg"><g clip-path="url(#clip0)"><path d="M98.647 31.5c1.885 0 3.427.555 4.627 1.664 1.221 1.11 1.831 2.569 1.831 4.377v9.4h-4.563v-8.506c0-.904-.246-1.613-.739-2.127-.492-.534-1.156-.801-1.992-.801-.557 0-1.103.154-1.638.462-.514.288-.91.668-1.19 1.14v9.833h-4.53v-8.507c0-.884-.246-1.593-.739-2.127-.492-.534-1.124-.801-1.895-.801a3.31 3.31 0 00-1.736.462c-.514.308-.9.72-1.156 1.233v9.74h-4.53V31.808h4.53v1.726c1.007-1.356 2.506-2.034 4.498-2.034 2.035 0 3.502.709 4.402 2.127.536-.596 1.221-1.1 2.056-1.51a6.307 6.307 0 012.764-.617zm20.987.308h4.53v15.134h-4.53v-1.788c-.386.616-1.018 1.12-1.896 1.51a6.586 6.586 0 01-2.763.586c-2.057 0-3.803-.76-5.238-2.28-1.414-1.542-2.12-3.412-2.12-5.61 0-2.199.706-4.059 2.12-5.58 1.435-1.52 3.181-2.28 5.238-2.28.985 0 1.906.195 2.763.586.878.39 1.51.894 1.896 1.51v-1.788zm-3.663 11.312c.771 0 1.488-.175 2.152-.524.664-.35 1.168-.801 1.511-1.356v-3.7c-.343-.575-.847-1.038-1.511-1.387a4.35 4.35 0 00-2.152-.555c-1.114 0-2.046.36-2.796 1.08-.75.718-1.124 1.612-1.124 2.68 0 1.07.374 1.963 1.124 2.682.75.72 1.682 1.079 2.796 1.079zm29.617-11.62c1.885 0 3.427.555 4.627 1.664 1.221 1.11 1.831 2.569 1.831 4.377v9.4h-4.562v-8.506c0-.904-.247-1.613-.739-2.127-.493-.534-1.157-.801-1.992-.801-.557 0-1.104.154-1.639.462a3.11 3.11 0 00-1.189 1.14v9.833h-4.53v-8.507c0-.884-.247-1.593-.739-2.127-.493-.534-1.125-.801-1.896-.801-.643 0-1.221.154-1.735.462-.514.308-.9.72-1.157 1.233v9.74h-4.53V31.808h4.53v1.726c1.007-1.356 2.506-2.034 4.498-2.034 2.035 0 3.503.709 4.402 2.127.536-.596 1.221-1.1 2.057-1.51a6.308 6.308 0 012.763-.617zm17.163 0c2.314 0 4.252.76 5.816 2.28 1.585 1.5 2.378 3.37 2.378 5.61s-.793 4.11-2.378 5.61c-1.564 1.5-3.502 2.25-5.816 2.25-2.335 0-4.284-.75-5.848-2.25-1.563-1.5-2.345-3.37-2.345-5.61s.782-4.11 2.345-5.61c1.564-1.52 3.513-2.28 5.848-2.28zm2.667 5.24c-.707-.72-1.596-1.079-2.667-1.079-1.071 0-1.97.36-2.699 1.079-.707.698-1.06 1.582-1.06 2.65 0 1.048.353 1.932 1.06 2.651.729.699 1.628 1.048 2.699 1.048s1.96-.35 2.667-1.048c.728-.72 1.093-1.603 1.093-2.65 0-1.07-.365-1.953-1.093-2.651zm16.913-5.24c1.992 0 3.555.616 4.691 1.85 1.156 1.212 1.735 2.886 1.735 5.023v8.569h-4.531v-7.829c0-1.048-.278-1.86-.835-2.435-.536-.575-1.275-.863-2.217-.863-.621 0-1.221.165-1.8.493a3.484 3.484 0 00-1.349 1.233v9.4h-4.53V31.809h4.53v1.788c.428-.637 1.028-1.14 1.799-1.51a5.602 5.602 0 012.507-.586z" fill="#202020"/><path fill-rule="evenodd" clip-rule="evenodd" d="M19.966 23.492l-9.208-9.22c-12.698 12.715-12.686 33.342.028 46.072 12.714 12.73 33.315 12.743 46.013.029C69.498 47.658 69.485 27.03 56.771 14.3l-4.598 4.605L33.756.465 15.362 18.881l9.209 9.22 9.197-9.209 9.208 9.22 4.598-4.604c7.629 7.638 7.636 20.015.017 27.644-7.619 7.628-19.98 7.62-27.608-.017-7.628-7.639-7.636-20.015-.017-27.644z" fill="#5528FF"/></g><defs><clipPath id="clip0"><path fill="#fff" d="M0 0h194v70H0z"/></clipPath></defs></svg>