<svg width="345" height="40" fill="none" xmlns="http://www.w3.org/2000/svg"><path d="M283.809 6.092v7.19l-3.778-.005-.005 4.702 3.779.001v11.885c0 2.82.545 5.196 2.095 6.903 1.657 1.884 4.086 3.047 7.344 3.045 1.491.002 3.096-.22 4.09-.55l-1.05-4.755c-.776.224-2.102.332-2.874.33-1.381.002-2.874-.497-3.588-1.382-.663-.772-.775-1.937-.775-3.317l.005-12.158h8.284v-4.703h-8.284V6.09h-5.243zm-88.693-.006l.002 7.186h8.28v4.704l-8.28-.002-.004 12.159c0 1.382.104 2.544.767 3.314.723.889 2.212 1.386 3.592 1.385.772 0 2.098-.106 2.871-.334l1.045 4.757c-.992.332-2.589.551-4.082.553-3.262 0-5.686-1.16-7.348-3.044-1.542-1.71-2.096-4.086-2.096-6.907l.001-11.882-3.78-.002v-4.701h3.78l-.001-7.187 5.253.001zM137.659.554l3.869-.001-.008 38.697-5.522.003.006-26.045-11.323 17.748h-3.866l-11.32-17.749-.002 26.04-5.524.002.006-38.697 3.865-.004 14.903 23.613L137.659.554zm43.679 38.7h-5.242L176.102 0l5.24.002-.004 39.252zm-10.064-12.99c0-7.69-5.247-13.548-12.475-13.547-7.344-.002-12.657 5.75-12.657 13.545s5.853 13.541 13.42 13.541c5.303.001 9.001-2.378 10.941-4.865l-3.426-3.258c-1.493 1.661-3.587 3.54-7.455 3.54a8.37 8.37 0 01-8.395-7.852l19.989.003c.058-.498.058-.886.058-1.108zm-19.606-3.318a7.546 7.546 0 017.295-5.639c3.088.001 6.068 2.32 6.849 5.637l-14.144.002zm118.311-7.286c-2.378-2.048-5.194-2.937-8.126-2.936-2.429 0-4.575.612-6.35 1.655-3.915 2.32-6.681 6.687-6.681 11.89 0 5.194 2.704 9.506 6.626 11.826 1.764 1.051 4.2 1.718 6.518 1.719 3.086-.002 5.902-1.054 8.009-2.927l-.002 2.374 5.076-.002.002-25.979-5.074.001.002 2.379zm-.168 15.475c-1.777 2.377-4.475 3.704-7.129 3.702-5.022 0-8.614-3.929-8.614-8.572 0-4.535 3.314-8.568 8.342-8.567 3.148-.001 5.794 1.604 7.401 3.7v9.737zm65.267-14.869c1.269-1.765 3.973-3.54 7.787-3.542.55.001 1.433.061 2.039.17l-.606 5.03c-.606-.165-1.218-.22-2.043-.223-2.71.002-5.576 1.881-7.015 4.367l-.002 17.196h-5.244l.004-25.983h5.08v2.985zm-9.798 11.115c.058-.498.06-.884.058-1.108 0-7.687-5.247-13.547-12.479-13.548-7.343 0-12.648 5.75-12.646 13.545-.004 7.798 5.846 13.544 13.415 13.542 5.301.003 9.001-2.376 10.932-4.864l-3.419-3.259c-1.491 1.66-3.594 3.541-7.455 3.541a8.37 8.37 0 01-8.394-7.851l19.988.002zm-19.547-4.425a7.545 7.545 0 017.292-5.637c3.094-.003 6.073 2.319 6.845 5.636h-14.137zm-62.315-9.68l5.408.002-10.55 25.978h-3.648l-7.282-18.236-7.289 18.235h-3.65l-10.542-25.98h5.412l7.123 17.746 7.126-17.745h3.643l7.118 17.745 7.131-17.744zM47.878.527c10.675 0 19.332 8.661 19.332 19.352 0 10.69-8.657 19.352-19.333 19.352-10.679 0-19.33-8.663-19.33-19.352 0-10.69 8.651-19.352 19.33-19.352zm0 27.647c4.575 0 8.285-3.712 8.285-8.295 0-4.581-3.71-8.293-8.286-8.293-4.577 0-8.282 3.712-8.282 8.293 0 4.583 3.705 8.295 8.282 8.295zm35.605-7.425c-2.005 2.61-4.425 5.182-6.844 7.618-4.203 4.252-8.968 7.967-13.765 10.864h14.054c7.276-5.252 13.703-12.303 17.895-19.352C90.63 12.83 84.203 5.78 76.928.526H62.874c4.797 2.898 9.562 6.614 13.765 10.866 2.419 2.435 4.84 5.006 6.844 7.617v.008c.19.237.306.531.306.858 0 .325-.116.62-.306.857v.016zm-71.21 0c2.005 2.61 4.426 5.182 6.845 7.618A71.804 71.804 0 0032.883 39.23H18.83C11.552 33.978 5.124 26.927.934 19.878 5.124 12.83 11.552 5.78 18.83.526h14.054C28.086 3.424 23.32 7.14 19.118 11.392c-2.42 2.435-4.84 5.006-6.845 7.617v.008a1.362 1.362 0 000 1.715v.016z" fill="#C2C2C2"/></svg>