<svg width="148" height="50" fill="none" xmlns="http://www.w3.org/2000/svg"><path fill-rule="evenodd" clip-rule="evenodd" d="M.934 49.547H50.78V0H.934v49.547zm24.184-5.689c-.185.55-.923.367-.923 0l-1.662-13.763h4.246l-1.661 13.763zm3.138-16.699v2.019h-7.2v-2.019h7.2zm7.754-12.111c0 3.12-.739 11.377-9.784 11.01.184-2.753 2.03-5.505 4.8-6.606 3.322-1.468 4.615-3.67 4.8-4.404.1-.1.146-.146.167-.137.017.008.017.053.017.137zM31.214 18.1c-1.914.986-4.888 2.518-5.912 7.224-2.357-5.19 1.43-8.7 2.954-10.111.147-.136.272-.252.37-.349.922-.734 2.215-2.386 2.953-4.037h.185c.369.367 1.846 4.037 1.107 6.056-.17.45-.81.78-1.657 1.217zm-3.428-3.556c-1.703 1.445-6.39 5.42-3.591 11.147-4.985-3.12-6.092-6.606-1.292-12.111.108-.144.3-.371.545-.66 1.006-1.187 2.886-3.405 3.331-5.03h.185c.37.551 1.477 3.855 1.477 5.873 0 .184 0 .184-.185.367-.1.1-.263.238-.47.414zm-7.283.87c-2.216 3.12-2.77 7.34 2.4 10.46-7.939 0-7.939-5.872-6.462-8.44 1.477-2.386 2.585-4.589 2.585-5.506 0-.184.184-.184.184 0 .37.367 1.293 2.385 1.293 3.12v.367zm48.921-4.954h-5.538v28.076h6.092V20.553l13.66 17.983h5.17V10.46h-6.092v17.25L69.424 10.46zm22.522 0l10.892 17.066h-.184v11.01h6.276V27.343l10.892-16.883h-7.015l-6.83 11.377-6.83-11.377h-7.2zm30.645 16.149V10.46h6.277v15.965c0 4.588 2.215 6.973 6.092 6.973s6.092-2.202 6.092-6.79V10.46h6.277v15.965c0 8.441-4.8 12.662-12.369 12.662-7.753 0-12.369-4.22-12.369-12.478z" fill="#C2C2C2"/></svg>