<svg width="143" height="36" fill="none" xmlns="http://www.w3.org/2000/svg"><path d="M121.422.468c2.052-.066 4.11-.066 6.162-.006.002 1.75-.005 3.502-.012 5.254v.002c-.016 4.052-.032 8.106.06 12.156 1.457-1.558 2.82-3.197 4.183-4.837.916-1.101 1.832-2.203 2.777-3.281l1.409-.005c1.998-.009 3.999-.017 6.001.04-1.597 1.963-3.259 3.87-4.92 5.778a312.947 312.947 0 00-3.606 4.189 976.342 976.342 0 014.824 5.544l.002.002.001.001c1.49 1.72 2.98 3.44 4.479 5.15-1.021-.05-2.053-.022-3.084.005-1.652.043-3.303.087-4.914-.19-1.145-1.306-2.226-2.666-3.307-4.025-1.248-1.568-2.495-3.136-3.839-4.621-.087 2.12-.076 4.242-.066 6.364.004.82.008 1.642.006 2.462h-1.535c-1.536.002-3.074.003-4.609-.006-.002-3.567 0-7.134.001-10.701v-.001c.003-6.424.006-12.848-.013-19.274zm-55.8 0c2.052-.066 4.11-.06 6.162-.006-.02 8.567-.015 17.134-.009 25.701l.003 4.287h-6.144c0-2.726.001-5.452.003-8.177v-.002c.003-7.267.007-14.534-.015-21.803zM62.424 11.58c-3.858-2.418-9.18-3.204-13.206-.768-2.982 1.758-4.11 6.228-1.776 8.952 1.506 1.635 3.587 2.117 5.67 2.598 1.303.302 2.606.604 3.768 1.188 1.278.696.342 2.244-.738 2.538-3.018.792-6.138-.378-8.742-1.86a311.861 311.861 0 00-1.746 4.104c4.134 2.472 9.618 3.624 14.082 1.404 3.186-1.536 4.578-6.108 2.238-8.934-1.51-1.747-3.637-2.334-5.772-2.924-1.605-.443-3.215-.888-4.572-1.828.061-.156.113-.333.166-.515.197-.676.416-1.425 1.22-1.477 2.748-.606 5.412.564 7.812 1.77.162-.43.326-.858.49-1.287.375-.985.75-1.97 1.106-2.961z" fill="#C2C2C2"/><path fill-rule="evenodd" clip-rule="evenodd" d="M74.766 16.614c1.146-4.248 5.334-7.686 9.846-7.218 2.01 0 3.744 1.104 5.268 2.298l.2-1.117.154-.869c1.614.049 3.231.046 4.85.043h1.119c.026 4.928.02 9.86.016 14.79-.002 1.972-.004 3.944-.004 5.915-.266 0-.531-.002-.797-.003-1.726-.006-3.453-.013-5.179.04a228.6 228.6 0 01-.366-1.945c-2.568 2.286-6.408 3.102-9.558 1.56-4.986-2.19-7.176-8.466-5.55-13.494zm8.85-1.392c-3.588 1.044-4.782 6.198-1.89 8.646 2.52 2.712 8.682 1.272 8.394-2.832-.008-.32-.002-.645.003-.97.015-.861.03-1.73-.213-2.558-1.188-2.172-4.014-2.88-6.294-2.286z" fill="#C2C2C2"/><path d="M109.812 9.378c-4.704-.222-9.258 3.138-10.512 7.656-1.008 3.126-.342 6.678 1.548 9.336 2.142 2.994 5.892 4.8 9.57 4.494 3.582-.21 6.798-2.436 8.634-5.46-1.584-.912-3.18-1.812-4.806-2.646-1.626 2.01-4.482 3.33-6.936 1.944-3.198-1.446-3.816-6.246-1.092-8.46 2.388-2.166 6.246-1.296 8.016 1.242 1.626-.864 3.24-1.764 4.836-2.688-1.992-3.144-5.436-5.508-9.258-5.418z" fill="#C2C2C2"/><path fill-rule="evenodd" clip-rule="evenodd" d="M13.5 0a3.9 3.9 0 000 7.8h3.9V3.9A3.9 3.9 0 0013.5 0zM3.9 9a3.9 3.9 0 000 7.8h9.6a3.9 3.9 0 000-7.8H3.9zM36 13.539a3.9 3.9 0 00-7.8 0v3.9h3.9a3.9 3.9 0 003.9-3.9zm-9-9.6a3.9 3.9 0 00-7.8 0v9.6a3.9 3.9 0 007.8 0v-9.6zM22.5 36a3.9 3.9 0 000-7.8h-3.9v3.9a3.9 3.9 0 003.9 3.9zm9.6-9a3.9 3.9 0 000-7.8h-9.6a3.9 3.9 0 000 7.8h9.6zM0 22.462a3.9 3.9 0 007.8 0v-3.9H3.9a3.9 3.9 0 00-3.9 3.9zm9 9.6a3.9 3.9 0 007.8 0v-9.6a3.9 3.9 0 00-7.8 0v9.6z" fill="#C2C2C2"/></svg>