<svg width="127" height="36" fill="none" xmlns="http://www.w3.org/2000/svg"><path fill-rule="evenodd" clip-rule="evenodd" d="M99.316 29.463c.997-1.066 1.925-2.057 2.971-2.484.234-3.614 2.132-6.968 4.115-9.942.183-.287.409-.532.631-.773.186-.203.37-.402.524-.622 1.444-2.07 3.513-4.524 5.92-4.524 1.01 0 2.262.288 3.272 1.155.434.385.578.577.722.962.722 1.877 1.011 2.214 2.118 2.214.281 0 .613-.022 1.018-.048.637-.042 1.455-.096 2.543-.096 2.262 0 3.754.866 3.754 1.684 0 .482-.385.674-.866.867a2.005 2.005 0 00-.584.314c-.168.122-.317.231-.715.311-.576.092-1.107.24-1.647.389-.589.163-1.189.329-1.867.43-.674.096-1.299.096-1.78.096-.193 0-.337.144-.434.53-1.251 5.1-2.887 9.144-5.871 12.416l-.1.108c-1.141 1.238-2.606 2.828-4.617 2.828a3.675 3.675 0 01-1.588-.385c-1.769-.862-3.239-1.937-3.765-3.025-1.578 1.86-3.86 4.132-6.246 4.132-.288 0-.577-.048-.866-.096-1.78-.385-3.128-1.204-3.995-2.118-.365-.383-.62-.725-.794-1.084C89.656 34.344 87.695 36 85.658 36c-.29 0-.578-.048-.867-.096-1.78-.385-3.128-1.204-3.995-2.118-.87-.913-1.11-1.59-1.149-2.813-1.4 1.206-3.34 2.563-6.503 4.353-.674.385-1.3.53-2.118.53-1.443 0-3.032-.626-5.246-1.781-1.203-.626-2.07-1.973-2.599-3.514-.385-1.107-.625-2.262-.625-3.369 0-.673.096-1.299.289-1.973.588-2.049 1.493-3.97 2.61-5.791l-.057-.016c-.37-.106-.73-.209-.965-.209-.24 0-2.07.915-3.417 1.781-3.995 2.55-7.605 6.401-8.856 12.08-.192.867-.577 1.492-1.3 2.118a1.603 1.603 0 01-1.058.385c-.77 0-1.3-.337-2.166-1.3-.53-.577-.914-1.347-.914-1.925 0-1.084.677-2.05 1.349-3.009.46-.657.918-1.31 1.153-1.996 1.06-3.032 2.07-6.064 2.888-9.145.289-1.058.481-2.165.481-2.406 0-.21-.102-.365-.208-.522-.11-.167-.225-.338-.225-.585 0-.674 1.203-1.3 2.503-1.3 1.059 0 1.925.53 2.07.77.625 1.06.77 1.926.77 2.6a7.27 7.27 0 01-.087 1.176.812.812 0 00-.01.075c0 .096.048.144.096.144.097 0 .241-.096.482-.288 1.54-1.155 4.524-3.129 6.112-3.129 1.353 0 2.78.372 3.793 1.246a56.915 56.915 0 013.09-3.556c1.058-1.107 2.935-2.262 5.486-2.262.963 0 2.166.193 3.225.578 1.492.529 1.925 1.973 1.925 3.224 0 1.925-1.444 4.572-2.551 5.92-2.984 3.658-6.45 7.316-10.685 9.866-.48.29-.53.337-.53.578 0 .289.434 1.203.867 1.396.289.144.578.24.915.24 1.246 0 2.743-.932 3.5-1.404.121-.075.223-.138.302-.184 1.575-.914 2.895-2.057 4.151-3.144 1.125-.973 2.198-1.902 3.357-2.583.055-.033.109-.064.161-.092l.204-.517.309-.787c2.117-5.342 6.256-12.898 9.866-19.01.126-.207.249-.551.394-.957C92.34 1.978 93.03.05 94.755.05c.326 0 .612-.014.887-.026.253-.012.495-.023.75-.023.962 0 1.828.385 2.02.818.241.53.434.963.434 1.492 0 .626-.193 1.203-.53 1.733a253.877 253.877 0 01-3.32 5.096c-3.323 5.016-6.585 9.938-8.712 15.454-.172.446-.351.862-.526 1.27-.655 1.524-1.255 2.92-1.255 5.275 0 .866.241 1.059.433 1.059a.76.76 0 00.385-.145c1.073-.715 1.977-1.68 2.829-2.59 1.096-1.171 2.107-2.252 3.284-2.593.298-.96.67-1.9 1.039-2.837.103-.262.207-.525.308-.787 2.118-5.342 6.257-12.898 9.867-19.01.126-.207.249-.551.394-.957.465-1.301 1.154-3.23 2.878-3.23.326 0 .613-.014.888-.026.253-.012.495-.023.749-.023.962 0 1.829.385 2.021.818.241.53.433.963.433 1.492 0 .626-.192 1.203-.529 1.733-1.087 1.727-2.207 3.417-3.32 5.097-3.324 5.016-6.585 9.938-8.712 15.454-.173.446-.352.862-.526 1.27-.655 1.524-1.255 2.92-1.255 5.275 0 .866.24 1.059.433 1.059.096 0 .24-.048.385-.145 1.073-.715 1.976-1.68 2.829-2.59zM42.559 10.508c-.31.027-.91.08-1.804.08-1.396 0-2.792-.192-3.514-1.059-.24-.288-.24-.625-.24-1.058 0-.867.144-1.83.385-2.07.24-.24.53-.53 1.107-.53.397 0 .616.053.881.116.41.098.931.222 2.391.222 2.503 0 5.968-.53 6.93-.722 2.215-.434 4.573-.77 7.172-.77 2.118 0 5.15 2.021 5.15 2.84 0 .865-.337 1.395-1.011 1.876-.289.193-1.107.53-1.588.53-.578 0-.915-.337-1.252-.674-.144-.145-1.106-.482-1.347-.482-2.118 0-4.428.29-6.353.722a.768.768 0 01.144.385c0 .135-.06.24-.373.783-.247.43-.653 1.135-1.311 2.346-3.129 5.775-5.15 11.31-6.498 18.385-.144.77-.192 1.78-.192 2.743 0 1.107-.53 1.78-1.588 1.78-.722 0-1.781-.336-3.08-1.106-.674-.385-.867-1.107-.867-1.78 0-.723.145-1.445.193-1.637 1.78-7.075 3.802-13.476 6.738-19.78.337-.723.385-.867.385-.963 0-.145-.097-.193-.24-.193-.038 0-.11.006-.218.016zm33.137 5.615c.577-.914.722-1.203.722-1.636 0-.241-.097-.29-.24-.29-.242 0-.915.386-2.022 1.493-2.022 2.021-3.85 4.09-5.343 7.22-.48 1.01-.529 1.202-.529 1.347 0 .096.096.144.144.144.097 0 .193 0 .819-.578 2.262-2.069 3.994-3.946 5.39-5.823.407-.542.508-.779.622-1.046.088-.207.185-.432.437-.831zm37.877-.24c-.048-.097-.096-.145-.145-.145-.144 0-.433.048-.818.578-2.358 3.08-5.919 8.663-5.919 12.417 0 .24.048.866.24 1.395.145.385.53 1.011.77 1.011.289 0 .626-.144 1.203-1.01l.192-.287c2.536-3.801 5.054-7.577 5.054-12.13 0-.53 0-1.204-.192-1.348-.241-.193-.337-.337-.385-.482zM26.586 5.316H3.798A3.798 3.798 0 000 9.115v22.788c0 2.098 1.7 3.798 3.798 3.798h22.788c2.098 0 3.798-1.7 3.798-3.798V9.115c0-2.098-1.7-3.798-3.798-3.798zm-7.596 3.95h5.621c1.007 0 1.823.816 1.823 1.823v9.647a1.823 1.823 0 01-1.823 1.823h-5.62a1.823 1.823 0 01-1.824-1.823V11.09c0-1.007.816-1.823 1.823-1.823zm-13.217 0h5.621c1.007 0 1.823.817 1.823 1.824v17.243a1.823 1.823 0 01-1.823 1.823H5.773a1.823 1.823 0 01-1.823-1.823V11.09c0-1.006.816-1.822 1.823-1.822z" fill="#C2C2C2"/></svg>