<svg width="24" height="24" viewBox="0 0 24 24" fill="none" xmlns="http://www.w3.org/2000/svg">
<g id="24 / symbols / facebook">
<path id="icon" fill-rule="evenodd" clip-rule="evenodd" d="M4 2.00024H20C21.1046 2.00024 22 2.89567 22 4.00024V20.0002C22 21.1048 21.1046 22.0002 20 22.0002H4C2.89543 22.0002 2 21.1048 2 20.0002V4.00024C2 2.89567 2.89543 2.00024 4 2.00024ZM4 4.00024V20.0002H20V4.00024H4ZM11.1331 12.0046H13V18.0002H15V12.0046H16.9824V10.0046H15V9.00024C15 8.44796 15.4477 8.00024 16 8.00024H17V6.00024H16C14.3431 6.00024 13 7.34339 13 9.00024V10.0046H11.1331V12.0046Z" fill="white"/>
</g>
</svg>
