<svg width="112" height="50" viewBox="0 0 112 50" fill="none" xmlns="http://www.w3.org/2000/svg">
<path fill-rule="evenodd" clip-rule="evenodd" d="M3.40981 14.0619C2.77809 15.3681 2.25696 16.7379 1.85747 18.1611C1.72684 18.6703 1.65634 19.2127 1.82015 19.8001C2.87002 23.5644 8.43177 26.2758 13.9686 27.6782C22.2964 29.7876 31.8738 29.6375 33.1766 29.5199C48.2515 28.1486 49.7851 20.5915 49.7851 19.3552C49.7851 19.3264 49.7857 19.2927 49.7863 19.2544C49.7916 18.9294 49.8024 18.2664 49.5329 17.3599C48.9198 15.4276 48.078 13.599 47.0392 11.9033C47.7951 13.2224 47.7754 13.8168 47.7659 14.1009C47.765 14.1285 47.7642 14.1532 47.7642 14.1753C47.7642 19.2085 38.4052 22.4948 32.1426 24.2064C16.078 28.5997 2.96885 22.6138 2.96885 16.5442C2.96885 15.4774 3.12229 14.7281 3.40981 14.0619ZM1.25685 28.9311C3.91366 43.4247 22.1499 42.5965 25.2926 42.2485C48.2342 39.7018 50.2088 29.8955 50.5102 27.959C50.1991 30.5078 49.5038 32.9362 48.4858 35.1875C45.9485 40.4193 32.7861 50.9471 11.3961 42.1005C7.27822 40.3978 4.43065 37.564 3.28678 35.4967C2.32262 33.4454 1.63146 31.2412 1.25685 28.9311ZM7.35356 41.6072C12.7183 46.6514 20.9638 47.2623 24.75 47.2623C40.7849 47.2623 46.5111 38.8259 47.8057 36.5698C43.6276 44.4486 35.3462 49.816 25.8151 49.816C18.4909 49.816 11.9062 46.6473 7.35356 41.6072ZM28.8396 38.7948C23.9884 38.9691 15.4463 37.2949 10.0664 35.0955C5.73487 33.3236 1.44969 29.8782 0.990066 26.5919C0.952743 26.0364 0.934082 25.4746 0.934082 24.9108C0.934082 24.2148 0.96242 23.525 1.0184 22.8442C1.11447 26.8092 4.5516 31.4294 10.8543 33.4184C18.0478 35.687 22.4657 35.759 32.9299 33.4267C50.2415 29.5633 50.2297 22.0051 50.2282 21.0428C50.2282 21.0344 50.2282 21.0265 50.2282 21.0191C50.2282 20.6178 50.1791 19.8194 49.9918 18.9996C50.4528 20.8953 50.6961 22.8739 50.6961 24.9108C50.6961 25.5237 50.6733 26.136 50.6284 26.7414C50.2233 29.3213 46.3459 38.1694 28.8396 38.7948ZM18.581 18.4672C18.444 18.4496 18.3154 18.433 18.1958 18.4177C10.4596 17.4319 4.79282 14.4216 4.79282 12.1032C4.79282 11.7545 4.88474 11.4563 5.03887 11.1969C6.47302 9.02449 8.23824 7.08731 10.2647 5.46354C8.08733 7.27158 8.09349 9.17897 8.09445 9.47393C8.09446 9.47943 8.09448 9.48436 8.09448 9.48872C8.09448 11.7587 11.3961 15.3881 20.9562 15.3881C26.6244 15.3881 31.2006 14.2888 34.6564 13.1382C40.1932 11.2972 42.9344 9.04525 42.8355 7.3682C42.8196 7.10738 42.718 6.68466 42.4105 6.34911C43.6 7.41732 44.6872 8.59762 45.6541 9.87339C46.0183 10.4456 46.3846 11.4294 46.3846 12.1032C46.3846 14.5697 43.9732 18.361 33.1282 19.257C28.0017 19.6802 21.4468 18.8362 18.581 18.4672ZM25.822 10.3252C17.855 10.5306 11.251 8.56787 11.0727 6.07237C11.0139 5.24907 11.609 4.43476 12.7363 3.71454C16.5377 1.36018 21.0164 0 25.8151 0C30.4106 0 34.7158 1.2481 38.4121 3.42327C39.3576 3.97537 39.8926 4.61533 39.8926 5.32932C39.8926 7.82967 33.791 10.1211 25.822 10.3252ZM84.0942 32.364L83.994 32.3668C81.4692 32.3668 80.1898 31.0267 80.1898 28.3859V20.6046C80.1898 20.4697 80.299 20.3597 80.4373 20.3597H84.3935C84.6547 20.3597 84.8662 20.1473 84.8662 19.8886V18.161C84.8662 17.9016 84.6547 17.6899 84.3935 17.6899H80.449C80.3053 17.6899 80.1898 17.5757 80.1898 17.4325V13.8577C80.1995 13.6045 79.997 13.3831 79.7378 13.3713H79.6832L77.6595 13.5298C77.4107 13.5298 77.1978 13.7408 77.1978 14.0002V17.4443C77.1978 17.5799 77.0872 17.6899 76.9497 17.6899L74.467 17.6885C74.2065 17.6885 73.9929 17.8988 73.9929 18.1576L73.9888 19.8969C73.9929 20.0249 74.0461 20.1425 74.1374 20.2276C74.2286 20.3147 74.3489 20.3618 74.476 20.3597H76.9518C77.0879 20.3597 77.1999 20.4683 77.1999 20.6039L77.1978 28.9061C77.1978 33.363 80.5485 34.9522 83.488 34.9522C83.488 34.9522 83.8343 34.9584 84.1011 34.9315C84.3672 34.9072 84.5669 34.7211 84.5669 34.4631L84.5676 32.8317C84.5676 32.5736 84.3541 32.364 84.0942 32.364ZM101.301 33.6523L98.1551 30.4013C98.0618 30.3252 98.0245 30.1702 98.1116 30.047C98.1164 30.0401 100.51 26.0011 100.51 26.0011C100.564 25.8932 100.569 25.8108 100.569 25.7742C100.569 25.5196 100.361 25.3099 100.105 25.3099L98.348 25.3106C98.1703 25.3106 98.0155 25.4026 97.9298 25.5507L96.4086 28.1797C96.3388 28.2807 96.1881 28.3063 96.0782 28.2309L93.6211 25.7022C93.5831 25.6593 93.5652 25.6054 93.5652 25.5507C93.5652 25.4877 93.5907 25.4227 93.6419 25.3764L93.6737 25.3501C95.0615 24.5406 96.6436 23.3534 96.6436 21.2578C96.6436 18.8522 94.9184 17.2374 92.3536 17.2374C89.8377 17.2374 87.9308 18.9242 87.9308 21.437C87.9308 22.5446 88.3918 23.6467 89.3429 24.8076L89.3643 24.8339C89.4037 24.8817 89.4203 24.9433 89.4141 25.0055C89.4058 25.0699 89.3726 25.1273 89.3235 25.1667C87.2314 26.3567 86.1774 27.9334 86.1774 29.8616C86.1774 33.132 88.9102 34.8436 91.6126 34.8436C93.467 34.8436 94.9143 34.1317 96.307 32.5294C96.3132 32.5239 96.3339 32.4955 96.3339 32.4955C96.4176 32.4132 96.5724 32.4132 96.6664 32.5072L98.3556 34.259C98.357 34.2618 98.3998 34.3033 98.3998 34.3033C98.4904 34.3912 98.6072 34.441 98.7302 34.441H100.965C101.223 34.441 101.432 34.232 101.432 33.9754C101.432 33.8564 101.382 33.7387 101.301 33.6523ZM92.395 19.6658C93.4497 19.6658 94.0179 20.395 94.0179 21.2834C94.0179 22.3246 93.091 22.9272 91.9734 23.5499L91.9174 23.5775C91.8276 23.6267 91.7135 23.6073 91.643 23.5319C91.6403 23.5277 91.6175 23.5063 91.6175 23.5063C91.133 22.9729 90.5586 22.1281 90.5586 21.5158C90.5586 20.4753 91.3023 19.6658 92.395 19.6658ZM94.6496 30.77L94.6406 30.7818C93.8292 31.7497 92.9383 32.3952 91.6403 32.3952C90.1018 32.3952 88.8971 31.2875 88.8971 29.8768C88.8971 28.6239 89.43 27.8781 91.0127 26.924C91.1233 26.859 91.247 26.8728 91.3244 26.9496L94.6261 30.4089C94.6862 30.467 94.7118 30.5251 94.7146 30.5901C94.7159 30.5915 94.7159 30.5943 94.7159 30.5957C94.7159 30.6565 94.6966 30.7105 94.6496 30.77ZM72.5457 32.6007C72.5588 32.82 72.603 33.3167 72.7641 33.7685C72.7641 33.7685 72.829 33.9754 72.829 34.0549C72.829 34.3019 72.6217 34.5088 72.366 34.5088L70.4038 34.5074C70.3326 34.5032 70.2662 34.4859 70.2061 34.4562C70.081 34.3912 69.9974 34.2618 69.9566 34.1331C69.911 33.9857 69.8764 33.7858 69.8529 33.516C69.8211 33.2171 69.8197 32.8739 69.8218 32.721C69.8218 32.6871 69.7942 32.6588 69.7589 32.6588C69.7396 32.6588 69.7209 32.6685 69.7092 32.683L69.6967 32.6968C68.7166 33.8861 66.7475 34.8575 64.3001 34.8575C61.7753 34.8575 59.0674 33.2005 59.0674 29.9481C59.0674 24.414 66.0426 23.4765 68.792 23.5775L69.3387 23.59C69.4714 23.5935 69.5834 23.5471 69.5834 23.3638L69.5835 23.3335C69.5862 22.8694 69.6019 20.2248 66.1435 20.2248C64.889 20.2248 63.6567 20.5977 62.6144 21.2474C62.6144 21.2474 62.4679 21.3443 62.4713 21.3415C62.2633 21.4902 61.9744 21.4439 61.8251 21.2391C61.8251 21.2391 60.7787 19.8215 60.7683 19.807C60.7013 19.7053 60.6764 19.5821 60.7013 19.4624C60.7262 19.349 60.796 19.2376 60.9079 19.1629C62.2439 18.2711 64.3174 17.6747 66.5906 17.6747C69.4624 17.6747 72.5318 19.2217 72.5318 23.563L72.5305 31.7843C72.5305 31.7843 72.5381 32.4401 72.5457 32.6007ZM65.3369 32.2291C67.9142 31.8064 69.309 30.1688 69.7098 27.3308C69.8011 26.6916 69.7879 26.466 69.714 26.3539C69.6366 26.2336 69.5142 26.1713 69.3124 26.1485C69.0864 26.1201 68.7505 26.1014 68.7505 26.1014C64.1709 25.9042 61.6924 27.6996 61.7905 29.836C61.8769 31.7808 63.5219 32.5266 65.3369 32.2291ZM110.741 32.364L110.641 32.3668C108.114 32.3668 106.835 31.0267 106.835 28.3859V20.6046C106.835 20.4697 106.947 20.3597 107.082 20.3597H111.039C111.3 20.3597 111.513 20.1473 111.513 19.8886V18.161C111.513 17.9016 111.3 17.6899 111.039 17.6899H107.095C106.951 17.6899 106.835 17.5757 106.835 17.4325V13.8577C106.846 13.6045 106.643 13.3831 106.383 13.3713H106.33C106.328 13.3713 104.305 13.5298 104.305 13.5298C104.056 13.5298 103.843 13.7408 103.843 14.0002V17.4443C103.843 17.5799 103.731 17.6899 103.596 17.6899L101.111 17.6885C100.851 17.6885 100.64 17.8988 100.64 18.1576L100.636 19.8969C100.641 20.0249 100.692 20.1425 100.783 20.2276C100.874 20.3147 100.994 20.3618 101.121 20.3597H103.597C103.733 20.3597 103.844 20.4683 103.844 20.6039V28.9061C103.844 33.363 107.194 34.9522 110.134 34.9522C110.134 34.9522 110.481 34.9584 110.749 34.9315C111.014 34.9072 111.212 34.7211 111.212 34.4631L111.213 32.8317C111.213 32.5736 111.001 32.364 110.741 32.364Z" fill="#C2C2C2"/>
</svg>
