<svg width="128" height="44" viewBox="0 0 128 44" fill="none" xmlns="http://www.w3.org/2000/svg">
<path fill-rule="evenodd" clip-rule="evenodd" d="M22.0156 0H23.4063L23.4446 0.00127673C28.3982 0.166435 32.9198 1.95741 36.5085 4.84797C40.0972 1.95741 44.6189 0.166435 49.5725 0.00127673L49.6108 0H51.0015L51.0398 0.00127673C55.9934 0.166435 60.515 1.95741 64.1037 4.84797C67.6924 1.95741 72.2141 0.166435 77.1677 0.00127673L77.206 0H78.5967L78.635 0.00127673C83.5886 0.166435 88.1102 1.95741 91.6989 4.84797C95.2876 1.95741 99.8093 0.166435 104.763 0.00127673L104.801 0H106.192L106.23 0.00127673C118.235 0.401543 127.703 10.351 127.503 22.3591C127.303 34.3672 117.508 43.9956 105.497 43.9956C100.277 43.9956 95.4759 42.1775 91.6989 39.1361C87.922 42.1775 83.121 43.9956 77.9013 43.9956C72.6817 43.9956 67.8807 42.1775 64.1037 39.1361C60.3268 42.1775 55.5258 43.9956 50.3061 43.9956C45.0865 43.9956 40.2855 42.1775 36.5085 39.1361C32.7316 42.1775 27.9306 43.9956 22.7109 43.9956C10.699 43.9956 0.904547 34.3672 0.704291 22.3591C0.504035 10.351 9.97206 0.401543 21.9773 0.00127673L22.0156 0ZM39.7933 35.8684C42.7163 38.0845 46.3598 39.3979 50.3061 39.3979C54.2525 39.3979 57.896 38.0845 60.819 35.8684C57.8127 32.1741 55.9801 27.4833 55.8947 22.3591C55.8048 16.9716 57.6612 11.9985 60.8196 8.11621C58.0575 6.02151 54.6456 4.72958 50.9237 4.5977H49.6886C45.9667 4.72958 42.5548 6.02151 39.7927 8.11621C42.9511 11.9985 44.8074 16.9716 44.7176 22.3591C44.6321 27.4833 42.7996 32.1741 39.7933 35.8684ZM36.5085 11.3744C38.834 14.3905 40.1889 18.1852 40.1205 22.2825C40.0557 26.1719 38.7182 29.746 36.5085 32.6108C34.2989 29.746 32.9614 26.1719 32.8965 22.2825C32.8282 18.1852 34.1831 14.3905 36.5085 11.3744ZM33.2244 8.11621C30.066 11.9985 28.2096 16.9716 28.2995 22.3591C28.3849 27.4833 30.2175 32.1741 33.2238 35.8684C30.3008 38.0845 26.6573 39.3979 22.7109 39.3979C13.207 39.3979 5.45974 31.7802 5.30135 22.2825C5.14317 12.7971 12.6124 4.93364 22.0934 4.5977H23.3285C27.0504 4.72958 30.4623 6.02151 33.2244 8.11621ZM64.1037 11.3744C61.7783 14.3905 60.4234 18.1852 60.4918 22.2825C60.5566 26.1719 61.8941 29.746 64.1037 32.6108C66.3134 29.746 67.6509 26.1719 67.7157 22.2825C67.7841 18.1852 66.4292 14.3905 64.1037 11.3744ZM67.3885 35.8684C70.3115 38.0845 73.955 39.3979 77.9013 39.3979C81.8477 39.3979 85.4912 38.0845 88.4142 35.8684C85.4079 32.1741 83.5753 27.4833 83.4899 22.3591C83.4 16.9716 85.2564 11.9985 88.4148 8.11621C85.6527 6.02151 82.2408 4.72958 78.5189 4.5977H77.2838C73.5619 4.72958 70.15 6.02151 67.3879 8.11621C70.5463 11.9985 72.4026 16.9716 72.3128 22.3591C72.2273 27.4833 70.3948 32.1741 67.3885 35.8684ZM91.6989 11.3744C89.3735 14.3905 88.0186 18.1852 88.087 22.2825C88.1518 26.1719 89.4893 29.746 91.6989 32.6108C93.9086 29.746 95.2461 26.1719 95.3109 22.2825C95.3792 18.1852 94.0244 14.3905 91.6989 11.3744ZM94.9837 35.8684C97.9067 38.0845 101.55 39.3979 105.497 39.3979C115 39.3979 122.748 31.7802 122.906 22.2825C123.064 12.7971 115.595 4.93364 106.114 4.5977H104.879C101.157 4.72958 97.7452 6.02151 94.9831 8.11621C98.1415 11.9985 99.9978 16.9716 99.908 22.3591C99.8225 27.4833 97.99 32.1741 94.9837 35.8684Z" fill="#C2C2C2"/>
</svg>
