<svg width="345" height="40" viewBox="0 0 345 40" fill="none" xmlns="http://www.w3.org/2000/svg">
<path d="M283.809 6.09158V13.2811L280.031 13.2768L280.026 17.9789L283.805 17.98V29.8653C283.805 32.6842 284.35 35.0611 285.9 36.7684C287.557 38.6516 289.986 39.8147 293.244 39.8126C294.735 39.8147 296.34 39.5937 297.334 39.2621L296.284 34.5084C295.508 34.7316 294.182 34.84 293.41 34.8389C292.029 34.84 290.536 34.341 289.822 33.4558C289.159 32.6842 289.047 31.5189 289.047 30.1389L289.052 17.9811H297.336V13.2779H289.052V6.09053L283.809 6.09158ZM195.116 6.08632L195.118 13.2716L203.398 13.2726V17.9758L195.118 17.9737L195.114 30.1326C195.114 31.5147 195.218 32.6768 195.881 33.4474C196.604 34.3358 198.093 34.8326 199.473 34.8316C200.245 34.8316 201.571 34.7263 202.344 34.4979L203.389 39.2547C202.397 39.5874 200.8 39.8063 199.307 39.8084C196.045 39.8074 193.621 38.6474 191.959 36.7642C190.417 35.0547 189.863 32.6779 189.863 29.8568L189.864 17.9747L186.084 17.9726V13.2716H189.864L189.863 6.08526L195.116 6.08632ZM137.659 0.553684L141.528 0.552632L141.52 39.2505L135.998 39.2526L136.004 13.2084L124.681 30.9558H120.815L109.495 13.2074L109.493 39.2474L103.969 39.2495L103.975 0.551579L107.84 0.548421L122.743 24.1611L137.659 0.553684ZM181.338 39.2537H176.096L176.102 0L181.342 0.00210527L181.338 39.2537ZM171.274 26.2632C171.274 18.5747 166.027 12.7158 158.799 12.7168C151.455 12.7147 146.142 18.4674 146.142 26.2621C146.142 34.0568 151.995 39.8032 159.562 39.8032C164.865 39.8042 168.563 37.4253 170.503 34.9379L167.077 31.68C165.584 33.3411 163.49 35.22 159.622 35.22C155.094 35.2179 151.5 31.7326 151.227 27.3684L171.216 27.3705C171.274 26.8726 171.274 26.4853 171.274 26.2632ZM151.668 22.9463C152.554 19.5705 155.593 17.3053 158.963 17.3074C162.051 17.3084 165.031 19.6274 165.812 22.9442L151.668 22.9463ZM269.979 15.66C267.601 13.6116 264.785 12.7232 261.853 12.7242C259.424 12.7232 257.278 13.3358 255.503 14.3789C251.588 16.6989 248.822 21.0663 248.822 26.2684C248.822 31.4632 251.526 35.7747 255.448 38.0947C257.212 39.1463 259.648 39.8126 261.966 39.8137C265.052 39.8116 267.868 38.76 269.975 36.8874L269.973 39.2611L275.049 39.2589L275.051 13.28L269.977 13.2811L269.979 15.66ZM269.811 31.1347C268.034 33.5116 265.336 34.8389 262.682 34.8368C257.66 34.8379 254.068 30.9084 254.068 26.2653C254.068 21.7305 257.382 17.6968 262.41 17.6979C265.558 17.6968 268.204 19.3021 269.811 21.3979V31.1347ZM335.078 16.2663C336.347 14.5011 339.051 12.7263 342.865 12.7242C343.415 12.7253 344.298 12.7853 344.904 12.8947L344.298 17.9242C343.692 17.7589 343.08 17.7032 342.255 17.7011C339.545 17.7032 336.679 19.5821 335.24 22.0684L335.238 39.2642H329.994L329.998 13.2811H335.078V16.2663ZM325.28 27.3811C325.338 26.8832 325.34 26.4968 325.338 26.2726C325.338 18.5863 320.091 12.7263 312.859 12.7253C305.516 12.7242 300.211 18.4758 300.213 26.2705C300.209 34.0684 306.059 39.8137 313.628 39.8116C318.929 39.8147 322.629 37.4358 324.56 34.9484L321.141 31.6895C319.65 33.3495 317.547 35.2305 313.686 35.2305C309.16 35.2284 305.564 31.7432 305.292 27.3789L325.28 27.3811ZM305.733 22.9558C306.62 19.58 309.659 17.3168 313.025 17.3189C316.119 17.3158 319.098 19.6379 319.87 22.9547L305.733 22.9558ZM243.418 13.2768L248.826 13.2779L238.276 39.2558H234.628L227.346 21.02L220.057 39.2547H216.407L205.865 13.2747L211.277 13.2758L218.4 31.0211L225.526 13.2758H229.169L236.287 31.0211L243.418 13.2768ZM47.8774 0.526316C58.5534 0.526316 67.2096 9.18737 67.2096 19.8779C67.2096 30.5674 58.5534 39.2305 47.8774 39.2305C37.1982 39.2305 28.5472 30.5674 28.5472 19.8779C28.5472 9.18737 37.1982 0.526316 47.8774 0.526316ZM47.8774 28.1726C52.4531 28.1726 56.1635 24.4611 56.1635 19.8779C56.1635 15.2968 52.4531 11.5853 47.8774 11.5853C43.2996 11.5853 39.5954 15.2968 39.5954 19.8779C39.5954 24.4611 43.2996 28.1726 47.8774 28.1726ZM83.4834 20.7484C81.4783 23.3589 79.058 25.9305 76.6387 28.3663C72.4362 32.6179 67.6712 36.3326 62.8736 39.2305H76.9278C84.2036 33.9779 90.6308 26.9274 94.8228 19.8779C90.6308 12.8305 84.2036 5.78 76.9278 0.526316H62.8736C67.6712 3.42421 72.4362 7.14 76.6387 11.3916C79.058 13.8274 81.4783 16.3979 83.4834 19.0095V19.0168C83.6726 19.2537 83.7893 19.5484 83.7893 19.8747C83.7893 20.2 83.6726 20.4958 83.4834 20.7316V20.7484ZM12.2725 20.7484C14.2775 23.3589 16.6989 25.9305 19.1182 28.3663C23.3186 32.6179 28.0857 36.3326 32.8832 39.2305H18.8291C11.5523 33.9779 5.12395 26.9274 0.934082 19.8779C5.12395 12.8305 11.5523 5.78 18.8291 0.526316H32.8832C28.0857 3.42421 23.3186 7.14 19.1182 11.3916C16.6989 13.8274 14.2775 16.3979 12.2725 19.0095V19.0168C12.0832 19.2537 11.9676 19.5484 11.9676 19.8747C11.9676 20.2 12.0832 20.4958 12.2725 20.7316V20.7484Z" fill="#C2C2C2"/>
</svg>
