<svg width="148" height="50" viewBox="0 0 148 50" fill="none" xmlns="http://www.w3.org/2000/svg">
<path fill-rule="evenodd" clip-rule="evenodd" d="M0.934082 49.5469H50.7785V0H0.934082V49.5469ZM25.1179 43.8582C24.9333 44.4087 24.1948 44.2252 24.1948 43.8582L22.5333 30.0952H26.7793L25.1179 43.8582ZM28.2562 27.159V29.1776H21.0565V27.159H28.2562ZM36.0098 15.0476C36.0098 18.1672 35.2714 26.425 26.2255 26.058C26.4101 23.3054 28.2562 20.5528 31.0254 19.4517C34.3483 17.9837 35.6406 15.7816 35.8252 15.0476C35.9262 14.9472 35.9719 14.9017 35.9926 14.9112C36.0098 14.919 36.0098 14.9645 36.0098 15.0476ZM31.2141 18.0997C29.3003 19.0858 26.326 20.6184 25.3025 25.324C22.9447 20.1342 26.7326 16.6245 28.2562 15.2127C28.4027 15.077 28.5283 14.9606 28.6254 14.8641C29.5485 14.13 30.8407 12.4785 31.5792 10.8269H31.7638C32.133 11.1939 33.6099 14.8641 32.8714 16.8826C32.7014 17.3333 32.0618 17.6629 31.2141 18.0997ZM27.786 14.5436C26.0828 15.9887 21.3967 19.9646 24.1948 25.691C19.2104 22.5714 18.1027 19.0847 22.9026 13.5795C23.0108 13.4361 23.2036 13.2086 23.4479 12.9203C24.454 11.7331 26.3337 9.51495 26.7793 7.8908H26.964C27.3332 8.44132 28.4408 11.7445 28.4408 13.763C28.4408 13.9465 28.4408 13.9465 28.2562 14.13C28.1561 14.2295 27.9931 14.3678 27.786 14.5436ZM20.5026 15.4146C18.2873 18.5342 17.7335 22.7549 22.9026 25.8745C14.9644 25.8745 14.9644 20.0023 16.4412 17.4332C17.9181 15.0476 19.0258 12.8455 19.0258 11.928C19.0258 11.7445 19.2104 11.7445 19.2104 11.928C19.5796 12.295 20.5026 14.3135 20.5026 15.0476V15.4146ZM69.424 10.46H63.8857V38.5365H69.9778V20.5528L83.6389 38.5365H88.808V10.46H82.7159V27.7096L69.424 10.46ZM91.9464 10.46L102.838 27.5261H102.654V38.5365H108.93V27.3426L119.822 10.46H112.807L105.977 21.8374L99.1461 10.46H91.9464ZM122.591 26.6086V10.46H128.868V26.4251C128.868 31.0128 131.083 33.3983 134.96 33.3983C138.837 33.3983 141.052 31.1963 141.052 26.6086V10.46H147.329V26.4251C147.329 34.8664 142.529 39.0871 134.96 39.0871C127.207 39.0871 122.591 34.8664 122.591 26.6086Z" fill="#C2C2C2"/>
</svg>
