<svg width="143" height="36" viewBox="0 0 143 36" fill="none" xmlns="http://www.w3.org/2000/svg">
<path d="M121.422 0.467933C123.474 0.401933 125.532 0.401934 127.584 0.461934C127.586 2.21271 127.579 3.96402 127.572 5.71556V5.71779C127.556 9.76992 127.54 13.8236 127.632 17.8739C129.089 16.3163 130.452 14.6772 131.815 13.0373C132.731 11.9357 133.647 10.8337 134.592 9.75593C135.061 9.75479 135.531 9.75278 136.001 9.75077C137.999 9.74221 140 9.73363 142.002 9.79193C140.405 11.7536 138.743 13.661 137.082 15.5688C135.872 16.9579 134.662 18.3473 133.476 19.7579C135.093 21.5985 136.697 23.4504 138.3 25.3019L138.302 25.3042L138.303 25.305C139.793 27.0255 141.283 28.7456 142.782 30.4559C141.761 30.4052 140.729 30.4325 139.698 30.4597C138.046 30.5034 136.395 30.547 134.784 30.2699C133.639 28.9636 132.558 27.6042 131.477 26.2452C130.229 24.677 128.982 23.1089 127.638 21.6239C127.551 23.7436 127.562 25.8665 127.572 27.9879C127.576 28.8089 127.58 29.6296 127.578 30.4499C127.067 30.4499 126.555 30.4503 126.043 30.4507C124.507 30.4518 122.969 30.4529 121.434 30.4439C121.432 26.8769 121.434 23.31 121.435 19.7427V19.7416C121.438 13.3185 121.441 6.89444 121.422 0.467933Z" fill="#C2C2C2"/>
<path d="M65.622 0.468095C67.674 0.402095 69.732 0.408096 71.784 0.462096C71.7634 9.02909 71.7693 17.5961 71.7752 26.1631L71.778 30.4501H65.634C65.634 27.7239 65.6353 24.9981 65.6366 22.2726V22.2714C65.6402 15.0039 65.6438 7.73728 65.622 0.468095Z" fill="#C2C2C2"/>
<path d="M62.424 11.58C58.566 9.16201 53.244 8.37601 49.218 10.812C46.236 12.57 45.108 17.04 47.442 19.764C48.9476 21.3987 51.0295 21.8805 53.1115 22.3624C54.4148 22.664 55.7181 22.9656 56.88 23.55C58.158 24.246 57.222 25.794 56.142 26.088C53.124 26.88 50.004 25.71 47.4 24.228C46.812 25.59 46.224 26.958 45.654 28.332C49.788 30.804 55.272 31.956 59.736 29.736C62.922 28.2 64.314 23.628 61.974 20.802C60.4636 19.0553 58.3373 18.4679 56.2023 17.8781C54.5971 17.4347 52.987 16.9899 51.63 16.05C51.691 15.8936 51.7427 15.717 51.7958 15.5351C51.9934 14.8589 52.2122 14.11 53.016 14.058C55.764 13.452 58.428 14.622 60.828 15.828C60.99 15.3985 61.1536 14.9695 61.3173 14.5405C61.693 13.5557 62.0688 12.5704 62.424 11.58Z" fill="#C2C2C2"/>
<path fill-rule="evenodd" clip-rule="evenodd" d="M74.766 16.6141C75.912 12.3661 80.1 8.92812 84.612 9.39612C86.622 9.39612 88.356 10.5001 89.88 11.6941C89.9301 11.4203 90.0062 10.9903 90.0794 10.5769C90.1377 10.2477 90.1941 9.92894 90.234 9.70812C91.8475 9.75687 93.465 9.75413 95.0833 9.75139L95.085 9.75139C95.4579 9.75076 95.831 9.75012 96.204 9.75012C96.2297 14.6789 96.2248 19.6108 96.2199 24.5414C96.218 26.5133 96.216 28.485 96.216 30.4561C95.9504 30.4553 95.6848 30.4543 95.4192 30.4533C93.6928 30.4467 91.9664 30.4401 90.24 30.4921C90.144 30.0061 89.964 29.0341 89.874 28.5481C87.306 30.8341 83.466 31.6501 80.316 30.1081C75.33 27.9181 73.14 21.6421 74.766 16.6141ZM83.616 15.2221C80.028 16.2661 78.834 21.4201 81.726 23.8681C84.246 26.5801 90.408 25.1401 90.12 21.0361C90.1118 20.7156 90.1175 20.3915 90.1233 20.0664C90.1385 19.2047 90.1539 18.3358 89.91 17.5081C88.722 15.3361 85.896 14.6281 83.616 15.2221Z" fill="#C2C2C2"/>
<path d="M109.812 9.3781C105.108 9.1561 100.554 12.5161 99.2999 17.0341C98.2919 20.1601 98.9579 23.7121 100.848 26.3701C102.99 29.3641 106.74 31.1701 110.418 30.8641C114 30.6541 117.216 28.4281 119.052 25.4041C117.468 24.4921 115.872 23.5921 114.246 22.7581C112.62 24.7681 109.764 26.0881 107.31 24.7021C104.112 23.2561 103.494 18.4561 106.218 16.2421C108.606 14.0761 112.464 14.9461 114.234 17.4841C115.86 16.6201 117.474 15.7201 119.07 14.7961C117.078 11.6521 113.634 9.2881 109.812 9.3781Z" fill="#C2C2C2"/>
<path fill-rule="evenodd" clip-rule="evenodd" d="M13.5 0C11.3461 0 9.6 1.74609 9.6 3.9C9.6 6.05391 11.3461 7.8 13.5 7.8H17.4V3.9C17.4 1.74609 15.6539 0 13.5 0ZM3.9 9C1.74609 9 0 10.7461 0 12.9C0 15.0539 1.74609 16.8 3.9 16.8H13.5C15.6539 16.8 17.4 15.0539 17.4 12.9C17.4 10.7461 15.6539 9 13.5 9H3.9Z" fill="#C2C2C2"/>
<path fill-rule="evenodd" clip-rule="evenodd" d="M36 13.5387C36 11.3848 34.2539 9.63872 32.1 9.63872C29.9461 9.63872 28.2 11.3848 28.2 13.5387L28.2 17.4387H32.1C34.2539 17.4387 36 15.6926 36 13.5387ZM27 3.93872C27 1.78481 25.2539 0.0387166 23.1 0.0387165C20.9461 0.0387164 19.2 1.78481 19.2 3.93872V13.5387C19.2 15.6926 20.9461 17.4387 23.1 17.4387C25.2539 17.4387 27 15.6926 27 13.5387V3.93872Z" fill="#C2C2C2"/>
<path fill-rule="evenodd" clip-rule="evenodd" d="M22.5 35.9999C24.6539 35.9999 26.4 34.2538 26.4 32.0999C26.4 29.946 24.6539 28.1999 22.5 28.1999H18.6V32.0999C18.6 34.2538 20.3461 35.9999 22.5 35.9999ZM32.1 26.9999C34.2539 26.9999 36 25.2538 36 23.0999C36 20.946 34.2539 19.1999 32.1 19.1999H22.5C20.3461 19.1999 18.6 20.946 18.6 23.0999C18.6 25.2538 20.3461 26.9999 22.5 26.9999H32.1Z" fill="#C2C2C2"/>
<path fill-rule="evenodd" clip-rule="evenodd" d="M1.77031e-06 22.4615C1.48786e-06 24.6154 1.74609 26.3615 3.9 26.3615C6.05391 26.3615 7.8 24.6154 7.8 22.4615L7.8 18.5615H3.9C1.74609 18.5615 2.05276e-06 20.3076 1.77031e-06 22.4615ZM9 32.0615C9 34.2154 10.7461 35.9615 12.9 35.9615C15.0539 35.9615 16.8 34.2154 16.8 32.0615L16.8 22.4615C16.8 20.3076 15.0539 18.5615 12.9 18.5615C10.7461 18.5615 9 20.3076 9 22.4615L9 32.0615Z" fill="#C2C2C2"/>
</svg>
