<svg width="127" height="36" viewBox="0 0 127 36" fill="none" xmlns="http://www.w3.org/2000/svg">
<path fill-rule="evenodd" clip-rule="evenodd" d="M99.3155 29.4626C100.313 28.3967 101.241 27.4058 102.287 26.9794C102.521 23.3648 104.419 20.0113 106.402 17.0374C106.585 16.7497 106.811 16.5047 107.033 16.2636C107.219 16.0611 107.403 15.8615 107.557 15.6417C109.001 13.5722 111.07 11.1176 113.477 11.1176C114.487 11.1176 115.739 11.4064 116.749 12.2727C117.183 12.6578 117.327 12.8503 117.471 13.2353C118.193 15.1123 118.482 15.4492 119.589 15.4492C119.87 15.4492 120.202 15.4273 120.607 15.4006C121.244 15.3587 122.062 15.3048 123.15 15.3048C125.412 15.3048 126.904 16.1711 126.904 16.9893C126.904 17.4706 126.519 17.6631 126.038 17.8556C125.736 17.9634 125.589 18.0711 125.454 18.1702C125.286 18.2925 125.137 18.4015 124.739 18.4813C124.163 18.5734 123.632 18.7205 123.092 18.87C122.503 19.0331 121.903 19.199 121.225 19.2995C120.551 19.3957 119.926 19.3957 119.445 19.3957C119.252 19.3957 119.108 19.5401 119.011 19.9251C117.76 25.0267 116.124 29.0695 113.14 32.3422C113.107 32.3778 113.074 32.4138 113.04 32.45C111.899 33.688 110.434 35.2781 108.423 35.2781C107.894 35.2781 107.316 35.1337 106.835 34.893C105.066 34.0313 103.596 32.9557 103.07 31.8679C101.492 33.7277 99.2108 36 96.8242 36C96.5355 36 96.2467 35.9519 95.958 35.9038L95.9579 35.9037C94.1772 35.5187 92.8296 34.7005 91.9632 33.7861C91.598 33.4026 91.3436 33.0606 91.1685 32.7024C89.6566 34.344 87.6958 36 85.6584 36C85.3697 36 85.081 35.9519 84.7922 35.9038L84.7921 35.9037C83.0114 35.5187 81.6638 34.7005 80.7975 33.7861C79.9277 32.8729 79.6867 32.1954 79.6483 30.9726C78.2478 32.1786 76.3084 33.5364 73.1451 35.3262C72.4713 35.7112 71.8456 35.8556 71.0274 35.8556C69.5836 35.8556 67.9953 35.2299 65.7814 34.0749C64.5782 33.4492 63.7119 32.1016 63.1825 30.5615C62.7975 29.4545 62.5568 28.2995 62.5568 27.1925C62.5568 26.5187 62.6531 25.893 62.8456 25.2193C63.4339 23.1702 64.3387 21.2494 65.4554 19.428L65.3994 19.412C65.0298 19.3064 64.6687 19.2032 64.4338 19.2032C64.1932 19.2032 62.3643 20.1176 61.0167 20.984C57.0221 23.5348 53.4124 27.385 52.1611 33.0642C51.9686 33.9305 51.5836 34.5561 50.8616 35.1818C50.5247 35.4706 50.1397 35.5668 49.8028 35.5668C49.0328 35.5668 48.5034 35.2299 47.637 34.2674C47.1076 33.6898 46.7226 32.9198 46.7226 32.3422C46.7226 31.2575 47.3999 30.2912 48.0715 29.333C48.5322 28.6757 48.9903 28.0223 49.2253 27.3369C50.2841 24.3048 51.2948 21.2727 52.113 18.1925C52.4017 17.1337 52.5943 16.0267 52.5943 15.7861C52.5943 15.5752 52.4916 15.4214 52.3862 15.2635C52.2752 15.0971 52.1611 14.9261 52.1611 14.6791C52.1611 14.0053 53.3643 13.3797 54.6638 13.3797C55.7226 13.3797 56.5889 13.9091 56.7333 14.1497C57.359 15.2086 57.5034 16.0749 57.5034 16.7487C57.5034 17.3647 57.4417 17.7651 57.4171 17.9253C57.4109 17.9653 57.4071 17.9904 57.4071 18C57.4071 18.0963 57.4552 18.1444 57.5034 18.1444C57.5996 18.1444 57.744 18.0481 57.9846 17.8556C59.5247 16.7005 62.5087 14.7273 64.0969 14.7273C65.4502 14.7273 66.8778 15.0989 67.89 15.9727C68.8587 14.7495 69.9013 13.5679 70.9793 12.4171C72.0381 11.3102 73.9151 10.1551 76.4659 10.1551C77.4285 10.1551 78.6317 10.3476 79.6905 10.7326C81.1825 11.262 81.6156 12.7059 81.6156 13.9572C81.6156 15.8824 80.1718 18.5294 79.0649 19.877C76.0809 23.5348 72.6157 27.1925 68.3804 29.7433C67.8991 30.0321 67.8509 30.0802 67.8509 30.3209C67.8509 30.6096 68.2841 31.5241 68.7173 31.7166C69.006 31.861 69.2948 31.9572 69.6317 31.9572C70.8777 31.9572 72.3747 31.0253 73.1327 30.5534C73.253 30.4785 73.3547 30.4151 73.4338 30.369C75.0087 29.4546 76.3288 28.3123 77.5852 27.2251C78.7095 26.2522 79.7827 25.3235 80.9419 24.6417C80.9969 24.6087 81.0507 24.5781 81.1034 24.55C81.171 24.3775 81.2389 24.2053 81.3068 24.0332C81.4105 23.7705 81.5139 23.5083 81.6156 23.246C83.7333 17.9037 87.8723 10.3476 91.482 4.23529C91.6078 4.02939 91.7309 3.68484 91.8758 3.27917C92.3407 1.97801 93.0303 0.0481283 94.7547 0.0481283C95.0806 0.0481283 95.3673 0.0350708 95.6421 0.0225584C95.8948 0.0110486 96.1374 0 96.3911 0C97.3536 0 98.2199 0.385027 98.4124 0.818182C98.6531 1.34759 98.8456 1.78075 98.8456 2.31016C98.8456 2.93583 98.6531 3.51337 98.3162 4.04278C97.2293 5.76967 96.1091 7.4602 94.9959 9.14022C91.6725 14.1558 88.4112 19.0776 86.2841 24.5936C86.1116 25.04 85.9327 25.4564 85.7578 25.8637C85.1029 27.3884 84.5034 28.7841 84.5034 31.139C84.5034 32.0053 84.744 32.1979 84.9365 32.1979C85.0328 32.1979 85.1771 32.1497 85.3215 32.0535C86.3942 31.3384 87.2976 30.3731 88.1497 29.4626C89.2457 28.2916 90.2569 27.2112 91.4342 26.8703C91.7319 25.9104 92.1031 24.9697 92.4726 24.0333C92.5762 23.7706 92.6797 23.5083 92.7814 23.246C94.8991 17.9037 99.0381 10.3476 102.648 4.23529C102.774 4.02939 102.897 3.68484 103.042 3.27916C103.507 1.978 104.196 0.0481283 105.92 0.0481283C106.246 0.0481283 106.533 0.0350708 106.808 0.0225584C107.061 0.0110486 107.303 0 107.557 0C108.519 0 109.386 0.385027 109.578 0.818182C109.819 1.34759 110.011 1.78075 110.011 2.31016C110.011 2.93583 109.819 3.51337 109.482 4.04278C108.395 5.76968 107.275 7.46021 106.162 9.14023C102.838 14.1558 99.577 19.0776 97.4499 24.5936C97.2774 25.04 97.0985 25.4565 96.9236 25.8637C96.2686 27.3884 95.6691 28.7841 95.6691 31.139C95.6691 32.0053 95.9098 32.1979 96.1023 32.1979C96.1985 32.1979 96.3429 32.1497 96.4873 32.0535C97.56 31.3384 98.4634 30.3731 99.3155 29.4626ZM42.5595 10.5078C42.2499 10.5351 41.6483 10.5882 40.7547 10.5882C39.359 10.5882 37.9632 10.3957 37.2413 9.52941C37.0007 9.24064 37.0007 8.90374 37.0007 8.47059C37.0007 7.60428 37.1451 6.64171 37.3857 6.40107C37.6263 6.16043 37.9151 5.87166 38.4927 5.87166C38.8901 5.87166 39.1089 5.92375 39.3745 5.98697C39.7842 6.08452 40.3052 6.20856 41.7654 6.20856C44.2681 6.20856 47.7333 5.67914 48.6959 5.48663C50.9098 5.05348 53.2681 4.71658 55.867 4.71658C57.9846 4.71658 61.0167 6.73797 61.0167 7.55615C61.0167 8.42246 60.6798 8.95187 60.006 9.43316C59.7173 9.62567 58.8991 9.96257 58.4178 9.96257C57.8403 9.96257 57.5033 9.62567 57.1665 9.28877C57.0221 9.14439 56.0595 8.80749 55.8189 8.80749C53.7012 8.80749 51.3911 9.09626 49.4659 9.52941C49.5622 9.6738 49.6103 9.81818 49.6103 9.91444C49.6103 10.0488 49.5502 10.1532 49.2373 10.6972C48.9899 11.1271 48.5845 11.8317 47.9258 13.0428C44.7975 18.8182 42.7761 24.3529 41.4285 31.4278C41.2841 32.1979 41.236 33.2086 41.236 34.1711C41.236 35.2781 40.7066 35.9519 39.6477 35.9519C38.9258 35.9519 37.867 35.615 36.5675 34.8449C35.8937 34.4599 35.7012 33.738 35.7012 33.0642C35.7012 32.3422 35.8456 31.6203 35.8937 31.4278C37.6745 24.3529 39.6959 17.9519 42.6317 11.6471C42.9686 10.9251 43.0167 10.7807 43.0167 10.6845C43.0167 10.5401 42.9205 10.492 42.7761 10.492C42.7389 10.492 42.6667 10.4984 42.5595 10.5078ZM75.6959 16.123C76.2734 15.2086 76.4178 14.9198 76.4178 14.4866C76.4178 14.246 76.3215 14.1979 76.1771 14.1979C75.9365 14.1979 75.2627 14.5829 74.1558 15.6898C72.1344 17.7112 70.3055 19.7807 68.8135 22.9091C68.3322 23.9198 68.2841 24.1123 68.2841 24.2567C68.2841 24.3529 68.3804 24.4011 68.4285 24.4011C68.5247 24.4011 68.621 24.4011 69.2467 23.8235C71.5087 21.754 73.2413 19.877 74.637 18C75.0437 17.4578 75.1449 17.221 75.259 16.9542C75.3475 16.7473 75.4436 16.5223 75.6959 16.123ZM113.573 15.8824C113.525 15.7861 113.477 15.738 113.428 15.738C113.284 15.738 112.995 15.7861 112.61 16.3155C110.252 19.3957 106.691 24.9786 106.691 28.7326C106.691 28.9733 106.739 29.5989 106.931 30.1283C107.076 30.5134 107.461 31.139 107.701 31.139C107.99 31.139 108.327 30.9947 108.904 30.1283C108.968 30.0328 109.032 29.9373 109.096 29.8417C111.632 26.0407 114.15 22.2652 114.15 17.7112V17.7112C114.15 17.1818 114.15 16.508 113.958 16.3636C113.717 16.1711 113.621 16.0267 113.573 15.8824ZM26.586 5.31704H3.79801C1.70043 5.31704 0 7.01747 0 9.11505V31.9031C0 34.0007 1.70043 35.7011 3.79801 35.7011H26.586C28.6836 35.7011 30.3841 34.0007 30.3841 31.9031V9.11505C30.3841 7.01747 28.6836 5.31704 26.586 5.31704ZM18.9901 9.2672H24.6111C25.618 9.2672 26.4342 10.0834 26.4342 11.0902V20.7372C26.4342 21.744 25.618 22.5602 24.6111 22.5602H18.9901C17.9832 22.5602 17.167 21.744 17.167 20.7372V11.0902C17.167 10.0834 17.9832 9.2672 18.9901 9.2672ZM5.77295 9.26751H11.394C12.4008 9.26751 13.217 10.0837 13.217 11.0905V28.3335C13.217 29.3403 12.4008 30.1565 11.394 30.1565H5.77295C4.76611 30.1565 3.94991 29.3403 3.94991 28.3335V11.0905C3.94991 10.0837 4.76611 9.26751 5.77295 9.26751Z" fill="#C2C2C2"/>
</svg>
